<svg width="70" height="70.06" xmlns="http://www.w3.org/2000/svg">
 <defs>
  <style>.cls-1{fill:none;stroke:#000;stroke-miterlimit:10;stroke-width:4px;}.cls-2{fill:#000;}</style>
 </defs>
 <g>
  <title>background</title>
  <rect fill="none" id="canvas_background" height="72.06" width="72" y="-1" x="-1"/>
 </g>
 <g>
  <title>Layer 1</title>
  <g id="Layer_2">
   <g id="Layer_1-2">
    <polygon id="svg_1" points="25.514999389648438,2.0000011920928955 20.05499839782715,2.0000011920928955 20.05499839782715,12.040000915527344 31.5049991607666,12.040000915527344 25.514999389648438,2.0000011920928955 " class="cls-1"/>
    <polygon id="svg_2" points="41.43499755859375,17.330001831054688 41.43499755859375,12.040000915527344 30.5049991607666,12.040000915527344 17.294998168945312,12.040000915527344 10.424998760223389,2.0000011920928955 5.314998626708984,2.0000011920928955 5.314998626708984,68.05999755859375 10.244998455047607,68.05999755859375 18.70499897003174,54.31999969482422 27.154998779296875,68.05999755859375 31.91499900817871,68.05999755859375 31.91499900817871,53.970001220703125 31.91499900817871,31.950002670288086 41.43499755859375,17.330001831054688 " class="cls-1"/>
    <polyline id="svg_3" points="31.91499900817871,53.970001220703125 50.59499740600586,53.970001220703125 59.75499725341797,68.05999755859375 64.68499755859375,68.05999755859375 64.68499755859375,21.73000144958496 59.404998779296875,21.73000144958496 53.93499755859375,32.29999923706055 " class="cls-1"/>
    <polyline id="svg_4" points="48.59499740600586,53.970001220703125 48.59499740600586,68.05999755859375 43.4849967956543,68.05999755859375 34.85499954223633,53.970001220703125 " class="cls-1"/>
    <circle id="svg_5" r="3.67" cy="20.26" cx="19.705" class="cls-2"/>
    <path id="svg_6" d="m64.685,32.44l-40.56,0c-3.58,0 -6.48,-2.08 -6.48,-4.64" class="cls-1"/>
   </g>
  </g>
 </g>
</svg>